# xmcd
#
# Track frame offsets: 
#        150
#        17813
#        32556
#        54486
#        68948
#        89872
#        103618
#        120274
#        137623
#        157336
#        178206
#        194512
#
# Disc length: 2814 seconds
#
# Revision: 1
# Processed by: cddbd v1.5.2PL0 Copyright (c) Steve Scherf et al.
# Submitted via: ExactAudioCopy v0.99pb5
#
DISCID=ac0afc0c
DTITLE=Ida Jenshus - Color of the sun
DYEAR=2008
DGENRE=Country
TTITLE0=Blue eyed girl
TTITLE1=These are the days
TTITLE2=Restless kind
TTITLE3=For the nation
TTITLE4=Color of the sun
TTITLE5=Don't hold on too tight
TTITLE6=Little town girl
TTITLE7=Longest way home
TTITLE8=Million ways
TTITLE9=Little blue
TTITLE10=Star of the show
TTITLE11=Can i stay
EXTD=
EXTT0=
EXTT1=
EXTT2=
EXTT3=
EXTT4=
EXTT5=
EXTT6=
EXTT7=
EXTT8=
EXTT9=
EXTT10=
EXTT11=
PLAYORDER=
